<svg xmlns="http://www.w3.org/2000/svg" width="64" height="64" viewBox="0 0 64 64">
<g>
<path d="M 25.50 60.12 C17.13,57.91 10.05,52.09 5.91,44.00 C2.51,37.35 2.64,26.35 6.22,19.50 C9.33,13.53 13.87,9.05 20.00,5.91 C26.36,2.65 37.64,2.65 44.00,5.91 C50.13,9.05 54.67,13.53 57.78,19.50 C61.51,26.64 61.51,37.36 57.78,44.50 C52.89,53.90 44.34,59.70 34.26,60.47 C31.09,60.71 27.15,60.56 25.50,60.12 ZM 41.42 55.60 C46.28,53.57 52.56,47.53 54.94,42.62 C57.39,37.56 57.72,27.65 55.60,22.58 C53.57,17.71 47.12,10.97 42.50,8.87 C37.50,6.59 27.31,6.43 22.22,8.55 C17.31,10.59 11.22,16.52 8.90,21.50 C6.65,26.35 6.39,36.61 8.40,41.42 C10.41,46.23 16.39,52.49 21.29,54.91 C26.30,57.40 36.30,57.74 41.42,55.60 ZM 24.39 53.92 C22.67,53.42 19.30,51.27 16.90,49.13 C12.87,45.56 12.60,45.03 13.53,42.41 C14.08,40.84 16.05,38.54 17.91,37.28 C20.91,35.26 22.51,35.00 32.00,35.00 C41.49,35.00 43.09,35.26 46.09,37.28 C47.95,38.54 49.92,40.84 50.47,42.41 C51.39,45.02 51.13,45.56 47.13,49.11 C40.91,54.63 32.77,56.35 24.39,53.92 ZM 26.31 31.11 C22.27,28.57 21.00,26.17 21.00,21.08 C21.00,18.02 21.71,16.23 23.92,13.77 C26.50,10.88 27.43,10.50 32.00,10.50 C36.57,10.50 37.50,10.88 40.08,13.77 C48.73,23.45 37.22,37.95 26.31,31.11 Z" fill="rgba(0,0,0,1)"/>
</g>
</svg>